<?xml version="1.0" standalone="no"?>
<!DOCTYPE svg PUBLIC "-//W3C//DTD SVG 20010904//EN"
 "http://www.w3.org/TR/2001/REC-SVG-20010904/DTD/svg10.dtd">
<svg version="1.0" xmlns="http://www.w3.org/2000/svg"
 width="449.000000pt" height="445.000000pt" viewBox="0 0 449.000000 445.000000"
 preserveAspectRatio="xMidYMid meet">
<metadata>
Created by potrace 1.16, written by Peter Selinger 2001-2019
</metadata>
<g transform="translate(0.000000,445.000000) scale(0.100000,-0.100000)"
fill="#000000" stroke="none">
<path d="M2150 4258 c-85 -6 -159 -15 -287 -34 -24 -3 -43 -10 -43 -15 0 -5
-16 -9 -36 -9 -28 0 -35 -3 -30 -15 4 -12 -3 -13 -39 -8 -31 4 -45 2 -45 -6 0
-6 -10 -11 -22 -11 -13 0 -31 -7 -41 -15 -11 -7 -36 -17 -58 -20 -21 -4 -39
-11 -39 -16 0 -5 -5 -9 -11 -9 -12 0 -91 -34 -139 -60 -19 -11 -55 -30 -80
-43 -132 -69 -206 -121 -310 -217 -21 -19 -47 -41 -58 -49 -13 -9 -18 -22 -15
-40 3 -23 2 -24 -9 -9 -12 16 -20 10 -90 -63 -75 -79 -89 -99 -68 -99 6 0 10
-4 10 -10 0 -5 -8 -10 -17 -10 -26 0 -76 -49 -96 -92 -10 -21 -24 -38 -32 -38
-9 0 -15 -10 -15 -25 0 -14 -4 -25 -8 -25 -4 0 -21 -22 -37 -50 -16 -27 -32
-50 -36 -50 -3 0 -11 -18 -18 -40 -6 -22 -16 -40 -21 -40 -6 0 -10 -6 -10 -13
0 -18 -24 -67 -32 -67 -5 0 -8 -11 -8 -25 0 -14 -4 -25 -10 -25 -5 0 -10 -7
-10 -15 0 -8 -4 -23 -10 -33 -20 -35 -70 -203 -70 -236 0 -19 -5 -36 -10 -38
-6 -2 -12 -21 -14 -43 -3 -22 -9 -53 -15 -68 -6 -16 -9 -32 -7 -36 3 -3 -2
-41 -9 -83 -16 -93 -20 -353 -6 -440 6 -35 16 -103 22 -153 7 -49 19 -98 27
-107 7 -9 12 -21 9 -25 -7 -12 39 -176 62 -222 10 -20 24 -57 32 -83 7 -27 17
-48 21 -48 4 0 8 -5 8 -12 0 -21 64 -141 117 -222 29 -43 53 -82 53 -87 0 -5
12 -6 26 -3 19 5 25 4 20 -5 -4 -6 -12 -9 -17 -6 -12 8 -11 1 3 -30 10 -23 21
-30 42 -26 18 3 37 -21 26 -34 -8 -10 -5 -19 11 -34 13 -11 20 -23 17 -26 -4
-4 190 -205 199 -205 1 0 18 -15 36 -33 19 -17 51 -43 71 -57 21 -14 43 -30
49 -35 22 -20 176 -117 265 -167 18 -10 39 -18 46 -18 8 0 16 -4 18 -8 3 -7
34 -20 193 -82 50 -19 164 -50 184 -50 12 0 32 -5 44 -12 12 -6 48 -15 82 -19
33 -5 96 -14 140 -21 104 -16 367 -17 372 -1 3 8 12 9 28 3 12 -5 25 -7 27 -4
3 2 52 11 109 19 203 29 354 70 461 126 10 5 25 9 33 9 8 0 15 3 15 8 0 10 50
32 72 32 10 0 18 5 18 10 0 6 7 10 15 10 18 0 51 18 78 42 11 9 38 27 61 38
59 30 109 62 132 85 24 24 109 94 138 115 32 22 186 182 186 192 0 5 -9 7 -19
3 -11 -3 -22 -1 -25 4 -4 5 -47 -30 -97 -79 -50 -50 -104 -98 -120 -107 -16
-10 -32 -25 -35 -35 -3 -10 -11 -18 -18 -18 -6 0 -27 -13 -46 -30 -19 -16 -41
-29 -47 -30 -7 0 -13 -4 -13 -10 0 -5 -6 -10 -13 -10 -8 0 -22 -9 -32 -20 -10
-11 -25 -20 -33 -20 -8 0 -29 -11 -46 -23 -28 -22 -143 -80 -191 -97 -11 -4
-40 -17 -63 -29 -24 -11 -54 -21 -66 -21 -12 0 -26 -4 -32 -8 -12 -11 -85 -32
-234 -66 -235 -55 -677 -44 -892 22 -21 7 -55 17 -75 23 -38 10 -74 24 -105
40 -10 5 -25 9 -34 9 -17 0 -286 131 -313 153 -9 6 -26 18 -38 24 -13 7 -33
19 -45 25 -22 12 -90 65 -148 114 -14 12 -47 40 -75 63 -83 69 -89 75 -127
121 -43 51 -37 44 -103 130 -28 36 -53 67 -56 70 -17 15 -69 101 -69 113 0 9
-4 17 -9 19 -5 2 -26 35 -46 73 -21 39 -44 74 -51 78 -8 4 -14 16 -14 25 0 25
-33 112 -42 112 -4 0 -8 13 -8 28 0 15 -4 32 -8 38 -8 8 -37 98 -61 189 -21
77 -41 201 -50 310 -12 149 -8 267 15 465 4 30 7 73 8 95 0 22 6 45 12 50 6 6
19 42 28 80 10 39 22 79 28 91 5 11 8 27 6 35 -1 8 7 28 20 46 12 17 22 37 22
45 0 13 63 153 97 213 9 17 21 40 27 52 6 13 14 23 19 23 4 0 7 4 7 10 0 5 14
29 30 52 17 24 49 70 72 103 23 33 50 67 60 76 10 9 18 22 18 28 0 6 11 16 25
21 14 5 25 14 25 19 0 13 137 151 150 151 6 0 10 7 10 15 0 8 4 15 8 15 9 0
105 67 135 95 10 8 33 23 52 32 38 18 46 33 18 33 -13 0 -14 3 -5 12 9 9 15 9
23 1 11 -11 40 -2 59 17 10 10 66 41 100 56 19 9 67 31 107 50 39 19 77 34 85
34 10 0 9 3 -2 10 -8 5 -11 12 -7 16 4 4 12 3 18 -3 11 -11 112 9 134 27 6 4
24 10 40 13 17 3 48 11 70 17 22 7 58 14 80 17 22 2 49 8 60 13 43 19 374 31
505 17 94 -10 200 -27 236 -38 17 -5 39 -9 49 -9 26 0 112 -28 157 -51 10 -5
27 -9 37 -9 11 0 23 -4 26 -10 3 -5 14 -10 23 -10 10 0 35 -9 57 -20 22 -11
47 -20 56 -20 10 0 19 -3 21 -7 2 -5 30 -21 63 -37 33 -16 62 -32 65 -35 3 -3
19 -13 35 -21 17 -8 49 -27 72 -42 23 -15 44 -28 47 -28 3 0 15 -9 27 -21 11
-11 27 -18 35 -15 8 3 14 -1 14 -9 0 -7 12 -23 28 -34 15 -12 32 -25 39 -31 7
-5 19 -10 28 -10 8 0 15 -7 15 -15 0 -8 15 -19 33 -24 17 -5 26 -10 20 -10
-22 -2 -14 -14 57 -89 54 -58 73 -72 89 -67 16 5 18 2 14 -15 -4 -13 2 -29 14
-43 12 -12 33 -42 48 -67 16 -25 31 -47 35 -50 7 -6 90 -129 90 -135 0 -9 74
-130 82 -133 4 -2 8 -12 8 -22 0 -21 23 -84 68 -190 19 -43 43 -137 62 -235 6
-33 16 -76 21 -95 30 -118 29 -619 -2 -657 -7 -8 -4 -15 8 -22 17 -10 17 -10
1 -11 -13 0 -18 -8 -18 -27 -1 -16 -9 -53 -20 -83 -11 -30 -19 -66 -20 -80 0
-15 -4 -30 -8 -35 -5 -6 -17 -36 -26 -68 -14 -43 -15 -61 -7 -71 9 -11 8 -14
-6 -12 -13 1 -22 -12 -33 -45 -9 -26 -21 -53 -27 -60 -6 -8 -14 -25 -18 -39
-4 -14 -25 -54 -46 -89 -22 -34 -39 -65 -39 -68 0 -10 -129 -188 -171 -235
-41 -48 -41 -48 -18 -57 27 -10 79 19 79 44 0 8 8 20 18 27 19 14 82 93 82
103 0 3 9 15 20 27 11 12 20 28 20 36 0 8 8 22 18 31 10 9 31 43 46 76 15 33
38 81 52 107 14 26 26 61 27 78 1 16 8 30 15 30 7 0 12 13 12 30 0 17 5 30 10
30 6 0 10 8 10 18 0 10 3 22 7 26 12 12 33 80 33 109 0 15 5 27 10 27 6 0 10
12 10 26 0 14 9 60 20 102 10 43 20 114 22 159 2 46 6 83 11 83 4 0 7 11 7 25
0 14 -6 25 -12 25 -10 0 -10 2 0 9 21 13 9 315 -18 476 -16 90 -33 159 -42
170 -4 5 -8 18 -8 29 0 29 -20 88 -64 189 -58 131 -82 176 -97 180 -13 3 -16
11 -12 26 4 14 -5 39 -26 72 -17 28 -31 55 -31 60 0 5 -4 9 -10 9 -5 0 -10 5
-10 11 0 14 -75 114 -148 199 -74 85 -263 270 -276 270 -6 0 -19 9 -31 20 -38
39 -159 123 -224 158 -182 96 -257 132 -273 132 -15 0 -74 23 -130 51 -10 5
-27 9 -37 9 -11 0 -23 5 -27 11 -4 7 -29 9 -73 5 -36 -3 -59 -3 -51 0 8 3 22
8 30 12 16 6 -42 17 -170 31 -41 5 -95 12 -120 15 -81 10 -203 12 -300 4z"/>
<path d="M1720 3952 c0 -12 5 -22 10 -22 6 0 10 -9 10 -20 0 -11 5 -29 12 -39
9 -15 9 -23 -1 -35 -17 -20 -41 -21 -41 -2 0 17 -34 27 -71 19 -43 -8 -35 -22
12 -20 56 3 59 -16 7 -37 -68 -28 -72 -31 -83 -54 -12 -26 -21 -28 -29 -6 -6
15 -8 15 -31 0 -13 -9 -32 -13 -41 -9 -12 4 -27 -5 -49 -32 -28 -32 -37 -37
-60 -31 -24 6 -27 4 -22 -13 6 -23 -29 -51 -65 -51 -21 0 -21 -1 -6 -16 15
-15 19 -15 50 7 18 13 35 27 36 31 2 4 10 8 17 8 7 0 23 11 36 25 31 33 74 53
125 58 24 2 49 12 62 25 31 31 98 63 118 55 10 -4 20 0 26 10 5 10 16 17 23
17 20 0 19 18 -7 81 -26 65 -38 81 -38 51z"/>
<path d="M2195 3533 c-27 -2 -72 -7 -100 -12 -27 -6 -79 -15 -115 -22 -36 -6
-69 -16 -75 -20 -5 -5 -17 -9 -27 -9 -10 0 -27 -4 -38 -10 -11 -5 -29 -14 -40
-20 -11 -5 -25 -10 -32 -10 -7 0 -24 -9 -38 -20 -14 -11 -31 -20 -39 -20 -7 0
-33 -13 -58 -30 -24 -16 -47 -30 -50 -30 -9 0 -127 -92 -131 -102 -2 -5 -12
-8 -23 -8 -10 0 -19 -7 -19 -15 0 -8 -5 -15 -11 -15 -7 0 -9 -10 -4 -27 5 -23
4 -25 -10 -13 -14 11 -23 6 -68 -45 -29 -32 -59 -68 -67 -79 -8 -12 -20 -27
-27 -34 -7 -7 -13 -20 -13 -27 0 -8 -10 -24 -23 -37 -40 -40 -129 -224 -158
-328 -39 -137 -51 -208 -56 -355 -4 -123 -1 -160 29 -300 23 -107 76 -262 109
-315 5 -8 18 -33 29 -56 12 -23 29 -50 38 -60 21 -25 62 -82 62 -88 0 -5 34
-44 108 -124 43 -47 54 -54 63 -42 9 13 10 13 6 0 -5 -15 86 -110 105 -110 5
0 26 -13 46 -29 73 -59 279 -148 408 -177 134 -31 180 -37 289 -37 127 0 249
15 335 43 14 4 45 13 70 20 53 15 75 24 202 85 53 26 102 53 109 61 6 8 18 14
25 14 8 0 16 10 19 23 4 14 13 23 24 23 30 -2 193 144 206 183 3 12 11 21 17
21 14 0 23 13 102 130 34 52 68 112 75 132 7 21 17 40 22 43 5 4 9 16 9 28 0
12 7 31 15 41 17 23 36 86 65 221 17 80 22 132 21 259 0 88 -4 162 -9 165 -5
3 -9 27 -10 53 0 44 -14 102 -33 140 -5 10 -9 29 -9 43 0 14 -4 25 -10 25 -5
0 -10 9 -10 19 0 11 -4 23 -10 26 -5 3 -10 17 -10 29 0 13 -8 34 -18 47 -10
13 -25 40 -32 59 -24 58 -79 137 -168 239 -73 84 -106 116 -114 114 -4 -2 -8
3 -8 10 0 8 -11 19 -25 25 -14 6 -25 16 -25 22 0 5 -9 10 -19 10 -10 0 -21 6
-24 14 -5 14 -69 59 -119 85 -16 8 -28 18 -28 23 0 4 -11 8 -24 8 -14 0 -28 5
-31 10 -3 6 -15 10 -26 10 -10 0 -28 9 -40 21 -15 15 -30 20 -50 17 -21 -3
-28 -1 -25 8 3 7 -6 14 -22 17 -15 3 -52 11 -82 20 -113 30 -277 46 -405 40z
m223 -68 c122 -16 157 -22 187 -35 11 -5 41 -14 68 -21 26 -8 47 -17 47 -21 0
-4 9 -8 20 -8 11 0 28 -4 38 -9 9 -5 38 -19 64 -31 27 -12 50 -25 53 -30 3 -4
28 -20 57 -35 29 -15 64 -38 79 -51 14 -13 33 -24 42 -24 10 0 14 -5 11 -15
-4 -8 -2 -15 3 -15 13 0 133 -119 133 -131 0 -5 11 -15 25 -21 14 -6 25 -14
25 -17 0 -4 16 -31 36 -61 46 -70 124 -218 124 -236 0 -8 4 -22 9 -32 41 -82
51 -108 51 -138 0 -19 5 -34 10 -34 6 0 10 -26 10 -59 0 -33 5 -63 10 -66 13
-8 13 -250 -1 -334 -13 -81 -48 -213 -60 -225 -5 -6 -9 -19 -9 -30 0 -12 -9
-39 -20 -61 -10 -22 -25 -55 -32 -72 -7 -18 -16 -33 -20 -33 -5 0 -8 -6 -8
-13 0 -13 -86 -134 -153 -216 -22 -27 -25 -36 -15 -43 10 -7 9 -8 -4 -4 -11 3
-23 -3 -31 -14 -16 -22 -41 -42 -183 -138 -96 -66 -156 -101 -199 -118 -18 -7
-17 -8 8 -12 15 -2 27 -8 27 -13 0 -12 -37 -12 -45 1 -8 13 -52 13 -60 0 -3
-5 -16 -10 -28 -10 -12 0 -31 -7 -41 -15 -11 -8 -30 -15 -43 -15 -13 0 -23 -4
-23 -9 0 -11 -81 -20 -245 -27 -117 -6 -330 10 -370 26 -11 5 -38 14 -60 21
-22 6 -52 18 -67 25 -14 8 -32 14 -40 14 -16 0 -97 40 -116 57 -7 7 -30 20
-50 30 -20 10 -45 24 -55 33 -10 8 -28 23 -39 32 -12 10 -25 18 -30 18 -5 0
-58 51 -118 113 -131 134 -131 135 -150 172 -8 17 -19 37 -26 45 -24 31 -74
130 -104 206 -18 43 -37 82 -43 86 -8 5 -7 11 2 21 7 9 8 18 3 21 -9 5 -11 16
-31 146 -15 101 -23 278 -13 284 5 3 10 33 11 67 1 34 3 65 6 70 3 4 14 43 25
86 11 43 24 87 29 98 5 11 19 43 31 70 12 28 26 58 31 67 5 10 9 22 9 28 0 9
19 35 48 65 6 8 12 21 12 29 0 9 4 16 9 16 5 0 15 14 22 32 13 32 229 258 246
258 6 0 18 9 28 20 10 11 24 20 30 20 7 0 19 7 26 16 7 9 70 43 139 76 143 69
149 71 210 88 92 24 117 29 195 38 122 14 162 13 283 -3z"/>
<path d="M2870 3116 c-19 -13 -51 -41 -71 -63 -20 -22 -51 -45 -69 -52 -39
-13 -112 -15 -125 -2 -6 5 -33 14 -62 20 -63 13 -141 1 -183 -29 -15 -11 -32
-20 -38 -20 -9 0 -71 -60 -135 -129 -16 -17 -36 -31 -45 -31 -10 0 -28 -7 -41
-16 -31 -22 -41 -7 -41 64 0 36 -4 52 -13 52 -14 0 -65 -103 -87 -172 -6 -21
-16 -38 -21 -38 -12 0 -12 -67 1 -75 6 -4 8 -11 4 -16 -4 -6 -11 -6 -20 2 -12
9 -14 6 -14 -19 0 -17 -4 -34 -10 -37 -5 -3 -10 -17 -10 -29 0 -13 -6 -29 -13
-35 -8 -6 -19 -28 -25 -48 -6 -21 -25 -54 -42 -73 -16 -19 -30 -39 -30 -44 0
-8 -44 -53 -157 -158 -46 -44 -60 -63 -56 -78 3 -11 0 -20 -6 -20 -6 0 -11 5
-11 10 0 32 -69 -28 -89 -77 -7 -18 -17 -33 -22 -33 -5 0 -9 -8 -9 -18 0 -20
65 -56 82 -46 5 3 58 6 116 5 71 0 109 4 113 11 6 9 14 9 31 1 13 -6 46 -15
73 -19 44 -8 52 -14 70 -46 18 -33 18 -40 6 -60 -10 -16 -10 -23 -2 -26 6 -2
11 -17 11 -33 0 -16 4 -29 9 -29 5 0 12 -9 16 -19 12 -39 157 -101 234 -101
17 0 39 -4 49 -9 9 -5 25 -12 35 -15 10 -3 23 -19 28 -36 6 -16 15 -27 21 -24
6 4 5 -2 -1 -14 -9 -17 -7 -30 11 -67 12 -25 28 -45 35 -45 7 0 13 -4 13 -10
0 -5 12 -10 26 -10 29 0 106 20 114 30 3 4 13 9 23 13 9 3 17 15 17 25 0 10 6
24 13 31 8 8 12 54 12 154 0 161 -33 351 -68 399 -19 26 -83 60 -120 64 -10 1
-23 6 -30 13 -6 6 -29 11 -52 11 -23 0 -45 4 -51 10 -5 5 -38 11 -72 13 -34 2
-65 7 -69 10 -3 4 -23 7 -43 7 -20 0 -41 5 -47 11 -6 6 -28 16 -49 24 -38 13
-60 49 -48 78 8 22 87 60 138 66 38 4 52 11 54 24 5 26 -16 47 -48 47 -34 0
-80 42 -80 72 1 32 76 88 119 88 37 0 121 -19 136 -31 6 -4 33 -15 60 -24 28
-10 56 -22 64 -28 30 -25 163 -62 188 -53 36 14 -33 103 -87 112 -19 3 -48 12
-65 19 -16 8 -38 16 -47 19 -10 3 -18 14 -18 26 0 25 64 55 140 65 30 4 82 11
115 16 33 5 110 12 170 15 61 3 127 12 148 20 20 7 37 10 37 5 0 -15 37 -23
70 -16 37 8 38 26 9 109 -26 74 -35 86 -63 86 -24 0 -66 -38 -66 -58 0 -7 -4
-12 -10 -12 -5 0 -12 -11 -16 -24 -7 -30 -60 -59 -98 -54 -25 2 -32 10 -44 46
-11 34 -18 42 -31 36 -9 -4 -29 -9 -46 -12 -16 -2 -34 -8 -40 -12 -28 -21
-150 -80 -166 -80 -10 0 -21 -4 -24 -10 -3 -5 -19 -10 -36 -10 -16 0 -38 -6
-49 -12 -16 -11 -22 -9 -34 7 -8 11 -18 40 -22 65 -7 43 -5 45 34 80 22 20 60
42 84 49 24 7 51 17 60 22 10 5 33 9 52 9 19 0 37 4 40 9 5 8 90 27 166 37 68
10 141 31 218 64 44 19 52 26 52 50 0 59 -67 77 -130 36z"/>
<path d="M3760 1477 c0 -31 -29 -57 -63 -57 -35 0 -34 -11 2 -33 21 -12 28
-22 24 -37 -3 -11 -9 -23 -14 -26 -5 -3 -9 -15 -8 -27 0 -12 3 -16 6 -9 3 7
18 19 35 28 27 14 32 14 53 0 33 -22 35 -21 28 17 -4 28 -1 37 19 53 43 34 44
46 4 39 -42 -8 -66 6 -66 41 0 12 -4 26 -10 29 -6 3 -10 -4 -10 -18z"/>
<path d="M792 1461 c-9 -25 -17 -30 -47 -33 l-37 -3 26 -30 c30 -34 30 -38 14
-65 -7 -10 -10 -22 -6 -25 9 -9 58 17 58 32 0 7 5 13 10 13 6 0 10 -6 10 -13
0 -7 10 -18 21 -26 21 -13 22 -12 16 23 -5 32 -2 39 29 62 41 31 38 41 -7 25
-27 -9 -34 -8 -45 7 -7 9 -14 25 -14 34 0 30 -18 29 -28 -1z"/>
<path d="M1087 1152 c-30 -31 -78 -78 -107 -105 -43 -39 -50 -50 -40 -62 11
-13 17 -11 45 13 19 15 34 32 34 39 2 34 62 15 99 -32 19 -24 52 -35 52 -17 0
4 -18 27 -41 50 -44 47 -45 63 -4 102 l25 23 37 -41 c21 -23 44 -42 51 -42 6
0 12 -7 12 -15 0 -8 7 -15 15 -15 26 0 16 19 -40 76 -30 31 -55 60 -55 64 0 4
-6 10 -14 13 -8 3 -36 -17 -69 -51z"/>
<path d="M3422 1173 c-7 -3 -28 -25 -47 -50 -55 -72 -43 -122 33 -136 24 -5
34 -3 38 8 4 8 14 15 24 15 9 0 29 9 43 20 33 26 69 26 85 -1 16 -24 8 -54
-23 -87 -20 -21 -29 -24 -63 -18 -35 5 -42 3 -47 -15 -4 -11 -5 -22 -3 -24 4
-4 47 -8 74 -6 28 1 87 62 103 106 10 29 10 38 -4 59 -22 33 -75 60 -89 46 -5
-5 -16 -10 -23 -10 -7 0 -31 -12 -52 -26 -73 -48 -130 -13 -81 49 15 19 31 27
51 27 17 0 39 5 50 11 41 22 -21 51 -69 32z"/>
<path d="M1361 958 l-20 -33 24 -3 c41 -5 31 -33 -10 -30 -37 2 -51 -9 -80
-69 -9 -18 -19 -33 -23 -33 -4 0 -13 -12 -20 -27 -10 -22 -10 -30 2 -41 11
-11 17 -7 36 25 41 67 59 106 55 114 -7 10 32 22 46 14 7 -5 8 -44 4 -119 -5
-106 -4 -114 16 -131 20 -19 21 -19 40 5 10 14 22 34 25 45 4 11 31 57 61 102
50 75 58 103 32 103 -5 0 -13 -10 -18 -23 -5 -12 -25 -44 -45 -70 -20 -26 -36
-52 -36 -57 0 -6 -7 -10 -15 -10 -17 0 -18 9 -15 143 2 92 -6 127 -30 127 -5
0 -17 -15 -29 -32z"/>
<path d="M3052 881 c-42 -36 -53 -74 -40 -140 8 -39 20 -61 49 -90 49 -48 92
-58 147 -34 64 27 109 138 57 138 -15 0 -21 -8 -23 -35 -4 -42 -42 -80 -81
-80 -46 0 -121 91 -121 148 0 25 8 42 31 63 30 28 79 40 79 19 0 -14 37 -12
42 3 11 27 -4 37 -55 37 -42 -1 -58 -6 -85 -29z"/>
<path d="M1805 724 c-13 -14 -44 -55 -67 -90 -24 -35 -50 -66 -58 -69 -19 -6
-43 -56 -32 -67 12 -12 40 1 47 22 7 22 33 34 49 21 6 -5 30 -12 52 -16 43 -7
56 -22 68 -77 4 -17 13 -28 22 -28 17 0 17 56 -2 240 -9 90 -35 111 -79 64z"/>
<path d="M2638 693 c-1 -21 -1 -47 -1 -58 1 -11 -3 -36 -8 -57 -5 -20 -12 -69
-15 -108 -4 -64 -3 -72 11 -66 9 3 19 6 21 6 2 0 4 15 4 34 0 40 15 55 64 63
20 3 39 10 42 14 12 21 46 7 65 -26 23 -38 26 -40 49 -25 11 7 12 13 5 23 -22
31 -114 153 -127 167 -7 9 -19 28 -27 43 -11 21 -22 27 -48 27 -31 0 -33 -2
-35 -37z"/>
<path d="M2202 675 c-48 -33 -59 -53 -67 -116 -6 -49 -4 -62 21 -107 17 -32
35 -52 45 -52 10 0 21 -4 24 -10 3 -6 24 -10 45 -10 30 0 48 8 75 31 19 17 35
37 35 45 0 23 -30 16 -62 -16 -33 -34 -47 -36 -86 -16 -62 32 -80 84 -55 158
18 52 46 72 98 72 23 0 39 -7 52 -23 13 -16 27 -22 43 -19 24 4 24 5 -18 46
-51 50 -96 56 -150 17z"/>
</g>
</svg>
